<svg xmlns="http://www.w3.org/2000/svg" viewBox="0 0 48 48" width="48" height="48">
  <defs>
    <linearGradient id="linkedinGradient" x1="0" y1="0" x2="1" y2="1">
      <stop offset="0%" stop-color="#0077b5" />
      <stop offset="100%" stop-color="#0055a1" />
    </linearGradient>
    <filter id="linkedinGlow" x="-25%" y="-25%" width="150%" height="150%">
      <feGaussianBlur stdDeviation="1" result="blur" />
      <feFlood flood-color="#0077b5" flood-opacity="0.4" result="color" />
      <feComposite in="color" in2="blur" operator="in" result="glow" />
      <feComposite in="SourceGraphic" in2="glow" operator="over" />
    </filter>
  </defs>
  
  <!-- Background -->
  <rect width="44" height="44" x="2" y="2" rx="10" fill="url(#linkedinGradient)" filter="url(#linkedinGlow)" />
  
  <!-- LinkedIn logo -->
  <path d="M15 34h-5V18h5v16zm-2.5-18c-1.7 0-3-1.3-3-3s1.3-3 3-3 3 1.3 3 3-1.4 3-3 3zM35 34h-5v-7.8c0-1.9-.6-3.2-2.5-3.2-1.4 0-2.2 1-2.5 1.9-.1.3-.1.8-.1 1.2V34h-5s.1-14.5 0-16h5v2.3c.7-1.1 1.8-2.6 4.5-2.6 3.3 0 5.7 2.1 5.7 6.8V34h-.1z" 
        fill="white" />
</svg> 